<svg width="120" height="24" viewBox="0 0 120 24" fill="none" xmlns="http://www.w3.org/2000/svg">
<path fill-rule="evenodd" clip-rule="evenodd" d="M0.749325 10.5773C2.26741 4.47568 7.74665 0.192627 14.0343 0.192627C20.322 0.192627 25.8012 4.47568 27.3193 10.5773H26.1193C24.095 10.5475 22.1122 11.1525 20.4493 12.3073C20.3534 12.3768 20.2532 12.4403 20.1493 12.4973H20.0093C19.9055 12.4403 19.8053 12.3768 19.7093 12.3073C16.2778 9.99986 11.7908 9.99986 8.35933 12.3073C8.26336 12.3768 8.16316 12.4403 8.05932 12.4973H7.91932C7.81549 12.4403 7.71529 12.3768 7.61932 12.3073C5.95646 11.1525 3.97364 10.5475 1.94932 10.5773H0.749325ZM23.9593 16.8473C24.5753 16.3676 25.3388 16.1166 26.1193 16.1373H27.7293V12.9273H26.1193C24.7446 12.9107 23.4012 13.3386 22.2893 14.1473C21.005 15.0942 19.2537 15.0942 17.9693 14.1473C15.6343 12.5219 12.5343 12.5219 10.1993 14.1473C8.91498 15.0942 7.16367 15.0942 5.87932 14.1473C4.75372 13.3283 3.39112 12.8998 1.99932 12.9273H0.339325V16.1373H1.94932C2.72983 16.1166 3.49331 16.3676 4.10932 16.8473C6.44027 18.474 9.53838 18.474 11.8693 16.8473C12.4861 16.3691 13.2491 16.1183 14.0293 16.1373C14.8101 16.115 15.5741 16.3661 16.1893 16.8473C18.5243 18.4728 21.6243 18.4728 23.9593 16.8473ZM26.1193 21.8773C25.3388 21.8566 24.5753 22.1076 23.9593 22.5873C21.6243 24.2128 18.5243 24.2128 16.1893 22.5873C15.5741 22.1061 14.8101 21.855 14.0293 21.8773C13.2491 21.8583 12.4861 22.1091 11.8693 22.5873C9.53838 24.214 6.44027 24.214 4.10932 22.5873C3.49331 22.1076 2.72983 21.8566 1.94932 21.8773H0.339325V18.6673H1.99932C3.39112 18.6398 4.75372 19.0683 5.87932 19.8873C7.16367 20.8342 8.91498 20.8342 10.1993 19.8873C12.5343 18.2619 15.6343 18.2619 17.9693 19.8873C19.2537 20.8342 21.005 20.8342 22.2893 19.8873C23.4012 19.0786 24.7446 18.6507 26.1193 18.6673H27.7293V21.8773H26.1193Z" fill="#0D0D0D"/>
<path d="M32.0312 17.6745C31.4364 17.7067 30.8481 17.5376 30.3612 17.1945C29.9481 16.8883 29.7125 16.3983 29.7312 15.8845V6.61449C29.7213 6.53496 29.7487 6.45533 29.8054 6.39866C29.862 6.342 29.9417 6.31463 30.0212 6.32449H31.7012C31.8912 6.32449 31.9812 6.42449 31.9812 6.61449V15.1645C31.9812 15.5445 32.1512 15.7345 32.5012 15.7345C32.6496 15.7406 32.798 15.7237 32.9412 15.6845C33.1412 15.6845 33.2512 15.7445 33.2612 15.9245L33.4112 17.1745C33.4258 17.2482 33.4077 17.3247 33.3617 17.3841C33.3157 17.4435 33.2462 17.4801 33.1712 17.4845C32.8032 17.606 32.4187 17.6701 32.0312 17.6745Z" fill="#0D0D0D"/>
<path fill-rule="evenodd" clip-rule="evenodd" d="M36.5744 14.8127C38.3157 16.2514 40.8332 16.2514 42.5744 14.8127V14.8027C44.0805 13.2321 44.0805 10.7534 42.5744 9.18272C40.8303 7.75192 38.3185 7.75192 36.5744 9.18272C35.0302 10.7417 35.0302 13.2537 36.5744 14.8127ZM41.0144 13.4927C40.2028 14.2279 38.966 14.2279 38.1544 13.4927C37.4213 12.6498 37.4213 11.3956 38.1544 10.5527C38.966 9.81753 40.2028 9.81753 41.0144 10.5527C41.7475 11.3956 41.7475 12.6498 41.0144 13.4927Z" fill="#0D0D0D"/>
<path fill-rule="evenodd" clip-rule="evenodd" d="M54.018 6.88992C54.018 6.69992 53.928 6.59992 53.738 6.59992L52.078 6.60992C52.0001 6.60335 51.9234 6.63217 51.8691 6.68841C51.8149 6.74464 51.7887 6.82231 51.798 6.89992V7.05992C51.1878 6.59317 50.436 6.34964 49.668 6.36992C48.6145 6.33234 47.5904 6.72178 46.828 7.44992C45.3294 9.00031 45.3294 11.4595 46.828 13.0099C47.5869 13.7447 48.6125 14.1383 49.668 14.0999C50.4144 14.1211 51.1465 13.8923 51.748 13.4499V14.0799C51.7684 14.5433 51.5986 14.9948 51.278 15.3299C50.9272 15.6501 50.4623 15.8159 49.988 15.7899C49.5989 15.7977 49.2139 15.7084 48.868 15.5299C48.5842 15.3765 48.367 15.1236 48.258 14.8199C48.203 14.6849 48.0737 14.5949 47.928 14.5899H46.248C45.978 14.5899 45.978 14.6799 45.978 14.8799C46.1187 15.6993 46.5931 16.4236 47.288 16.8799C48.0931 17.4018 49.0392 17.6636 49.998 17.6299C51.0596 17.6767 52.0995 17.3194 52.908 16.6299C53.6457 15.9838 54.0534 15.0399 54.018 14.0599V6.88992ZM51.2279 11.7296C50.8813 12.1197 50.3795 12.3358 49.8579 12.3196C49.3308 12.3349 48.8232 12.1194 48.4679 11.7296C48.1093 11.3178 47.9199 10.7854 47.9379 10.2396C47.9159 9.68842 48.1096 9.15034 48.4779 8.73964C48.8324 8.34874 49.3405 8.13305 49.8679 8.14964C50.3847 8.13257 50.8825 8.34489 51.2279 8.72964C51.9118 9.61274 51.9118 10.8465 51.2279 11.7296Z" fill="#0D0D0D"/>
<path fill-rule="evenodd" clip-rule="evenodd" d="M57.1505 14.8137C58.8946 16.2445 61.4064 16.2445 63.1505 14.8137V14.8037C64.6566 13.2331 64.6566 10.7543 63.1505 9.1837C61.405 7.7568 58.896 7.7568 57.1505 9.1837C55.6432 10.7577 55.6432 13.2397 57.1505 14.8137ZM60.1604 14.0441C59.6262 14.0606 59.1076 13.8625 58.7204 13.4941C58.0001 12.6465 58.0001 11.4017 58.7204 10.5541C59.1076 10.1857 59.6262 9.98768 60.1604 10.0041C60.6912 9.99037 61.2056 10.1882 61.5904 10.5541C62.3108 11.4017 62.3108 12.6465 61.5904 13.4941C61.2056 13.86 60.6912 14.0579 60.1604 14.0441Z" fill="#0D0D0D"/>
<path fill-rule="evenodd" clip-rule="evenodd" d="M66.6598 8.44358C67.2065 8.92212 68.023 8.92212 68.5698 8.44358C68.812 8.21498 68.9493 7.89664 68.9493 7.56358C68.9493 7.23051 68.812 6.91217 68.5698 6.68358C68.0183 6.21778 67.2112 6.21778 66.6598 6.68358C66.4175 6.91217 66.2802 7.23051 66.2802 7.56358C66.2802 7.89664 66.4175 8.21498 66.6598 8.44358ZM67.1097 17.1838C67.598 17.5242 68.1853 17.693 68.7797 17.6638C69.1706 17.6602 69.5585 17.5961 69.9297 17.4738C70.0048 17.4695 70.0743 17.4329 70.1203 17.3734C70.1663 17.314 70.1843 17.2376 70.1697 17.1638L70.0197 15.9138C70.0097 15.7338 69.8997 15.6738 69.6997 15.6738C69.553 15.7124 69.4014 15.7293 69.2497 15.7238C68.9097 15.7238 68.7397 15.5338 68.7397 15.1538V10.4338C68.7397 10.2438 68.6497 10.1438 68.4597 10.1438H66.7797C66.7002 10.134 66.6206 10.1613 66.5639 10.218C66.5073 10.2747 66.4799 10.3543 66.4897 10.4338V15.8738C66.4721 16.3851 66.7032 16.8733 67.1097 17.1838Z" fill="#0D0D0D"/>
<path fill-rule="evenodd" clip-rule="evenodd" d="M80.6253 7.58162C79.8575 6.8494 78.8256 6.45973 77.7653 6.50162C76.8396 6.48146 75.9463 6.84311 75.2953 7.50162C74.952 6.83074 74.236 6.43517 73.4853 6.50162C73.1173 6.49487 72.7513 6.55588 72.4053 6.68162C72.2605 6.72367 72.1647 6.86116 72.1753 7.01162V8.19162C72.1753 8.35162 72.2853 8.43162 72.5053 8.43162H72.8353C72.998 8.40775 73.1623 8.46219 73.2785 8.57842C73.3948 8.69465 73.4492 8.85899 73.4253 9.02162V17.2216C73.4108 17.2994 73.4356 17.3794 73.4916 17.4354C73.5475 17.4914 73.6275 17.5162 73.7053 17.5016H75.3853C75.5753 17.5016 75.6753 17.4116 75.6753 17.2216V13.6116C76.2827 14.0501 77.0165 14.2783 77.7653 14.2616C78.8276 14.3044 79.861 13.9105 80.6253 13.1716C82.0925 11.5971 82.0925 9.15617 80.6253 7.58162ZM77.5853 12.4611C77.0642 12.4611 76.5657 12.2482 76.2053 11.8716C75.8441 11.4456 75.6551 10.8999 75.6753 10.3416C75.6521 9.78294 75.8415 9.23621 76.2053 8.81162C76.5657 8.43508 77.0642 8.22212 77.5853 8.22212C78.1065 8.22212 78.605 8.43508 78.9653 8.81162C79.3438 9.22884 79.5415 9.77896 79.5153 10.3416C79.5383 10.9038 79.3409 11.4527 78.9653 11.8716C78.605 12.2482 78.1065 12.4611 77.5853 12.4611Z" fill="#0D0D0D"/>
<path d="M87.4558 15.9011C86.5581 15.938 85.6679 15.7233 84.8858 15.2811C84.2501 14.8982 83.8232 14.2468 83.7258 13.5111C83.7258 13.3111 83.7958 13.2111 84.0158 13.2111H85.4858C85.6284 13.2167 85.7558 13.3016 85.8158 13.4311C86.0258 13.9711 86.5758 14.2411 87.4558 14.2411C87.7627 14.2552 88.0684 14.1933 88.3458 14.0611C88.5409 13.973 88.6716 13.7847 88.6858 13.5711C88.6858 13.3111 88.5258 13.1311 88.2058 13.0111C87.8262 12.8848 87.4338 12.8009 87.0358 12.7611C86.5643 12.7077 86.0967 12.6242 85.6358 12.5111C85.1876 12.4097 84.7801 12.1763 84.4658 11.8411C84.0916 11.3806 83.9255 10.7854 84.007 10.1977C84.0885 9.60992 84.4104 9.08242 84.8958 8.74112C85.6166 8.28197 86.4623 8.05831 87.3158 8.10112C88.1422 8.07318 88.9598 8.27759 89.6758 8.69112C90.2602 9.02211 90.6643 9.59885 90.7758 10.2611C90.7758 10.4611 90.6858 10.5611 90.5058 10.5611H89.0258C88.8983 10.5687 88.7792 10.4972 88.7258 10.3811C88.6269 10.1443 88.4407 9.95451 88.2058 9.85112C87.9408 9.71246 87.6448 9.64363 87.3458 9.65112C87.0527 9.63518 86.7603 9.69366 86.4958 9.82112C86.3052 9.89467 86.1785 10.0768 86.1758 10.2811C86.1889 10.5618 86.3836 10.8012 86.6558 10.8711C87.0398 11.0159 87.4391 11.1165 87.8458 11.1711C88.3135 11.2327 88.7775 11.3195 89.2358 11.4311C89.684 11.5326 90.0915 11.7659 90.4058 12.1011C90.7454 12.4741 90.9218 12.9674 90.8958 13.4711C90.9134 14.1743 90.5602 14.835 89.9658 15.2111C89.2187 15.6908 88.3431 15.9314 87.4558 15.9011Z" fill="#0D0D0D"/>
<path d="M102.042 15.2546C102.053 15.3263 102.036 15.3997 101.992 15.458C101.949 15.5163 101.884 15.5548 101.812 15.5646C101.447 15.6838 101.066 15.7479 100.682 15.7546C99.9091 15.8347 99.1505 15.5047 98.682 14.8846C97.9757 15.4919 97.0623 15.8035 96.132 15.7546C95.2586 15.7949 94.4088 15.4644 93.792 14.8446C93.18 14.1957 92.8587 13.3256 92.902 12.4346V8.52462C92.902 8.33462 92.992 8.23462 93.182 8.23462H94.862C95.052 8.23462 95.142 8.33462 95.142 8.52462V12.1346C95.1238 12.5844 95.2775 13.0242 95.572 13.3646C95.8694 13.6801 96.2888 13.8515 96.722 13.8346C97.1647 13.854 97.5968 13.6956 97.922 13.3946C98.2301 13.0772 98.393 12.6464 98.372 12.2046V8.52462C98.372 8.33462 98.462 8.23462 98.652 8.23462H100.352C100.542 8.23462 100.632 8.33462 100.632 8.52462V13.2346C100.632 13.6246 100.802 13.8146 101.132 13.8146C101.287 13.8206 101.442 13.8038 101.592 13.7646C101.669 13.7431 101.751 13.7579 101.815 13.8047C101.88 13.8515 101.919 13.9251 101.922 14.0046L102.042 15.2546Z" fill="#0D0D0D"/>
<path d="M119.296 15.3823C119.314 15.4548 119.299 15.5316 119.255 15.5916C119.21 15.6516 119.141 15.6886 119.066 15.6923C118.695 15.8132 118.307 15.8773 117.916 15.8823C117.322 15.913 116.734 15.744 116.246 15.4023C115.818 15.105 115.567 14.6135 115.576 14.0923V11.7423C115.597 11.2939 115.447 10.8542 115.156 10.5123C114.872 10.1958 114.461 10.0234 114.036 10.0423C113.653 10.0278 113.285 10.19 113.036 10.4823C112.772 10.8174 112.638 11.2362 112.656 11.6623V15.3523C112.656 15.5423 112.566 15.6423 112.376 15.6423H110.686C110.607 15.6522 110.527 15.6248 110.471 15.5681C110.414 15.5115 110.387 15.4318 110.396 15.3523V11.7423C110.418 11.2988 110.28 10.8622 110.006 10.5123C109.76 10.2147 109.393 10.0425 109.006 10.0423C108.594 10.0257 108.194 10.1857 107.906 10.4823C107.62 10.8067 107.473 11.2305 107.496 11.6623V15.3523C107.506 15.4318 107.479 15.5115 107.422 15.5681C107.366 15.6248 107.286 15.6522 107.206 15.6423H105.576C105.386 15.6423 105.296 15.5423 105.296 15.3523V10.6423C105.32 10.4797 105.266 10.3153 105.15 10.1991C105.033 10.0829 104.869 10.0285 104.706 10.0523H104.376C104.156 10.0523 104.046 9.97232 104.046 9.81232V8.63232C104.036 8.48186 104.132 8.34436 104.276 8.30232C104.622 8.17658 104.988 8.11556 105.356 8.12232C106.077 8.06091 106.77 8.41867 107.136 9.04232C107.818 8.39593 108.739 8.0626 109.676 8.12232C110.59 8.07771 111.471 8.47144 112.046 9.18232C112.717 8.45396 113.678 8.06486 114.666 8.12232C115.549 8.08103 116.408 8.41103 117.036 9.03232C117.65 9.67996 117.972 10.551 117.926 11.4423V13.3723C117.926 13.7523 118.096 13.9423 118.416 13.9423C118.571 13.9495 118.727 13.9327 118.876 13.8923C119.083 13.8923 119.193 13.9723 119.206 14.1323L119.296 15.3823Z" fill="#0D0D0D"/>
</svg>
