<svg width="101" height="50" viewBox="0 0 101 50" fill="none" xmlns="http://www.w3.org/2000/svg">
<path d="M34.0134 21.9682C39.8069 21.9682 44.5034 17.2716 44.5034 11.4782C44.5034 5.68469 39.8069 0.988159 34.0134 0.988159C28.22 0.988159 23.5234 5.68469 23.5234 11.4782C23.5234 17.2716 28.22 21.9682 34.0134 21.9682Z" fill="#0D0D0D"/>
<path d="M57.4634 21.9682C63.2569 21.9682 67.9534 17.2716 67.9534 11.4782C67.9534 5.68469 63.2569 0.988159 57.4634 0.988159C51.6699 0.988159 46.9734 5.68469 46.9734 11.4782C46.9734 17.2716 51.6699 21.9682 57.4634 21.9682Z" fill="#0D0D0D"/>
<rect x="0.0834961" y="0.988159" width="20.97" height="20.97" fill="#0D0D0D"/>
<path d="M0.0834961 29.9681H3.0835V44.6781H0.0834961V29.9681Z" fill="#0D0D0D"/>
<path fill-rule="evenodd" clip-rule="evenodd" d="M8.11301 34.697C6.11792 35.5267 4.81944 37.4769 4.82348 39.6376C4.80995 41.0571 5.36853 42.4222 6.37322 43.425C7.37791 44.4278 8.74406 44.9838 10.1635 44.9676C12.3242 44.9676 14.272 43.6655 15.0979 41.6688C15.9239 39.6722 15.4652 37.3746 13.9359 35.8481C12.4066 34.3217 10.1081 33.8673 8.11301 34.697ZM10.1245 37.3777C11.3977 37.3559 12.4505 38.3644 12.4835 39.6373C12.5172 40.2678 12.2857 40.8836 11.845 41.3357C11.4043 41.7878 10.7946 42.035 10.1635 42.0173C8.89007 42.0169 7.85502 40.9902 7.84432 39.7168C7.83363 38.4435 8.85129 37.3995 10.1245 37.3777Z" fill="#0D0D0D"/>
<path fill-rule="evenodd" clip-rule="evenodd" d="M27.5635 44.1776V34.5976L24.6135 34.6276V35.6276C23.8951 34.7515 22.8053 34.2659 21.6735 34.3176C18.8458 34.3176 16.5535 36.6099 16.5535 39.4376C16.5535 42.2653 18.8458 44.5576 21.6735 44.5576C22.8062 44.6142 23.8981 44.1276 24.6135 43.2476V44.1776C24.6716 44.7956 24.4394 45.4056 23.9851 45.8286C23.5308 46.2516 22.9058 46.4396 22.2935 46.3376C21.3541 46.4153 20.4624 45.912 20.0435 45.0676L17.4635 46.5576C18.4719 48.1991 20.3122 49.1405 22.2335 48.9976C24.9135 48.9976 27.5635 47.5676 27.5635 44.1776ZM23.1785 37.1136C24.0863 37.523 24.6542 38.4429 24.6134 39.4379C24.6319 40.0817 24.3773 40.7033 23.9125 41.1491C23.4476 41.595 22.8159 41.8234 22.1734 41.7779C21.1776 41.777 20.2822 41.1712 19.9111 40.2471C19.5401 39.323 19.7678 38.2661 20.4866 37.5768C21.2053 36.8876 22.2707 36.7042 23.1785 37.1136Z" fill="#0D0D0D"/>
<path fill-rule="evenodd" clip-rule="evenodd" d="M32.583 34.697C30.5879 35.5267 29.2894 37.4769 29.2935 39.6376C29.2799 41.0571 29.8385 42.4222 30.8432 43.425C31.8479 44.4278 33.214 44.9838 34.6335 44.9676C36.7942 44.9676 38.742 43.6655 39.5679 41.6688C40.3939 39.6722 39.9352 37.3746 38.4059 35.8481C36.8765 34.3217 34.5781 33.8673 32.583 34.697ZM34.5945 37.3777C35.8677 37.3559 36.9205 38.3644 36.9534 39.6373H36.9334C36.9669 40.2642 36.7381 40.8768 36.3018 41.3283C35.8655 41.7797 35.2611 42.0293 34.6334 42.0173C33.36 42.0169 32.325 40.9902 32.3143 39.7168C32.3036 38.4435 33.3213 37.3995 34.5945 37.3777Z" fill="#0D0D0D"/>
<path fill-rule="evenodd" clip-rule="evenodd" d="M43.1835 30.0775C42.1784 30.0775 41.3635 30.8924 41.3635 31.8975C41.369 32.9004 42.1806 33.712 43.1835 33.7175C44.1887 33.7175 45.0035 32.9027 45.0035 31.8975C45.0035 30.8924 44.1887 30.0775 43.1835 30.0775ZM44.6736 34.597H41.6736V44.677H44.6736V34.597Z" fill="#0D0D0D"/>
<path fill-rule="evenodd" clip-rule="evenodd" d="M56.4576 43.3041C57.3606 42.3035 57.8271 40.984 57.7536 39.6383C57.8243 38.2942 57.3566 36.9773 56.4539 35.9789C55.5513 34.9805 54.288 34.3829 52.9436 34.3183C51.8108 34.2639 50.7122 34.7143 49.9436 35.5483V34.5983H46.9436V48.7383H49.9436V43.7383C50.7122 44.5722 51.8108 45.0226 52.9436 44.9683C54.2898 44.9037 55.5547 44.3047 56.4576 43.3041ZM52.3341 37.2991C53.6438 37.2881 54.7204 38.329 54.7536 39.6383H54.7336C54.7811 40.3006 54.5401 40.9511 54.0725 41.4226C53.6049 41.894 52.9563 42.1404 52.2936 42.0983C50.9843 42.0651 49.9434 40.9884 49.9545 39.6788C49.9655 38.3691 51.0245 37.3102 52.3341 37.2991Z" fill="#0D0D0D"/>
<path d="M67.0935 41.6576C67.0935 43.9776 65.0935 44.9676 62.8935 44.9676C61.0955 45.1268 59.3814 44.1767 58.5635 42.5676L61.1835 41.0776C61.4026 41.8271 62.1145 42.3225 62.8935 42.2676C63.6235 42.2676 63.9835 42.0376 63.9835 41.6376C63.9835 40.5276 58.9835 41.1176 58.9835 37.6376C58.9835 35.4376 60.8435 34.3276 62.9835 34.3276C64.5916 34.2787 66.0998 35.1056 66.9235 36.4876L64.2935 37.8676C64.0561 37.328 63.5229 36.9791 62.9335 36.9776C62.4135 36.9776 62.0935 37.1776 62.0935 37.5476C62.1335 38.6976 67.0935 37.9276 67.0935 41.6576Z" fill="#0D0D0D"/>
<path d="M78.1334 34.598V44.678H75.1334V43.738C74.4255 44.5852 73.3549 45.0424 72.2534 44.968C70.2534 44.968 68.4834 43.518 68.4834 40.788V34.598H71.4834V40.348C71.43 40.8443 71.6027 41.3382 71.9536 41.693C72.3046 42.0479 72.7966 42.226 73.2934 42.178C74.3934 42.178 75.1634 41.538 75.1634 40.108V34.598H78.1334Z" fill="#0D0D0D"/>
<path d="M95.4736 38.4978V44.6778H92.4736V38.7578C92.4736 37.7578 91.9836 37.0978 91.0236 37.0978C90.0636 37.0978 89.4436 37.8078 89.4436 38.9978V44.6778H86.4436V38.7578C86.4436 37.7578 85.9636 37.0978 84.9936 37.0978C84.0236 37.0978 83.4236 37.8078 83.4236 38.9978V44.6778H80.4236V34.5978H83.4236V35.5278C84.0606 34.6933 85.0768 34.2379 86.1236 34.3178C87.1761 34.2667 88.1782 34.7716 88.7636 35.6478C89.4439 34.7324 90.5464 34.2302 91.6836 34.3178C93.9636 34.3178 95.4736 35.9778 95.4736 38.4978Z" fill="#0D0D0D"/>
<path d="M98.0335 34.538C99.2706 34.538 100.273 33.5351 100.273 32.298C100.273 31.0609 99.2706 30.058 98.0335 30.058C96.7963 30.058 95.7935 31.0609 95.7935 32.298C95.7935 33.5351 96.7963 34.538 98.0335 34.538Z" fill="#0D0D0D"/>
</svg>
