<svg width="127" height="30" viewBox="0 0 127 30" fill="none" xmlns="http://www.w3.org/2000/svg">
<path fill-rule="evenodd" clip-rule="evenodd" d="M29.8131 10.1105C29.8133 6.03688 27.3133 2.38075 23.5172 0.903005C19.7211 -0.574739 15.4071 0.428878 12.6531 3.43048H0.173096V29.7705H26.5231V17.4605C28.6148 15.5896 29.8112 12.9168 29.8131 10.1105ZM24.7429 10.1109C24.747 12.0613 23.5752 13.8219 21.7744 14.5711C19.9736 15.3203 17.8988 14.9104 16.5182 13.5327C15.1376 12.155 14.7234 10.081 15.4689 8.27869C16.2143 6.47635 17.9725 5.30091 19.9229 5.3009C22.581 5.3009 24.7374 7.4528 24.7429 10.1109ZM5.24292 24.7001H21.4529V19.8701C20.9472 19.9539 20.4356 19.9974 19.9229 20.0001C14.4631 19.9946 10.0384 15.5699 10.0329 10.1101C10.0373 9.57018 10.0875 9.03158 10.1829 8.50012H5.24292V24.7001Z" fill="#0D0D0D"/>
<path fill-rule="evenodd" clip-rule="evenodd" d="M75.0151 6.32571C74.4051 6.60175 74.0242 7.2209 74.0527 7.88985L74.0727 7.89985C74.078 8.32243 74.2522 8.72532 74.5567 9.01846C74.8611 9.31161 75.2703 9.47058 75.6927 9.45985C76.3623 9.45924 76.9643 9.05166 77.2134 8.4302C77.4626 7.80874 77.309 7.0982 76.8253 6.63519C76.3417 6.17217 75.6251 6.04967 75.0151 6.32571ZM39.0227 7.06946H35.8127V20.0695H39.0227V7.06946ZM45.303 10.0294C42.303 10.0294 40.303 11.9594 40.303 15.1794C40.303 18.4694 42.233 20.3494 45.303 20.3494C48.373 20.3494 50.303 18.3994 50.303 15.1794C50.303 11.9594 48.303 10.0294 45.303 10.0294ZM47.123 15.1802C47.123 13.4102 46.433 12.3702 45.333 12.3702C44.233 12.3702 43.553 13.3702 43.553 15.1802C43.553 16.9902 44.233 17.9802 45.333 17.9802C46.433 17.9802 47.143 16.9902 47.143 15.1902L47.123 15.1802ZM54.6828 20.7403H51.5828L51.6028 20.7503C51.7828 22.5403 53.5628 23.8103 56.3428 23.8203C59.4028 23.8203 61.4828 22.3503 61.4828 20.0003V10.2603H58.3028V11.8731C57.7599 10.7861 56.6197 10.1147 55.3928 10.1803C52.8828 10.1803 51.3928 12.1003 51.3928 15.1803C51.3928 18.2603 52.9528 20.0503 55.3028 20.0503C56.5607 20.1425 57.746 19.4561 58.2928 18.3213V20.1003C58.2928 21.0803 57.6528 21.7403 56.4228 21.7403C55.6842 21.835 54.9729 21.4262 54.6828 20.7403ZM58.3028 15.1802C58.3028 13.6102 57.5828 12.6202 56.4428 12.6202C55.3028 12.6202 54.6028 13.6202 54.6028 15.1802C54.6028 16.7402 55.2928 17.6602 56.4428 17.6602C57.5928 17.6602 58.3028 16.8102 58.3028 15.1802ZM67.7527 10.0294C64.7527 10.0294 62.7527 11.9594 62.7527 15.1794H62.7727C62.7727 18.4694 64.6927 20.3494 67.7527 20.3494C70.8127 20.3494 72.7527 18.3994 72.7527 15.1794C72.7527 11.9594 70.7527 10.0294 67.7527 10.0294ZM69.5727 15.1802C69.5727 13.4102 68.8727 12.3702 67.7827 12.3702C66.6927 12.3702 66.0027 13.3702 66.0027 15.1802C66.0027 16.9902 66.6827 17.9802 67.7827 17.9802C68.8827 17.9802 69.5927 16.9902 69.5927 15.1902L69.5727 15.1802ZM74.053 10.2501H77.303V20.1101H74.103L74.053 10.2501ZM85.1028 20.2494C87.5528 20.2494 88.9928 18.3894 88.9928 15.1794L89.0528 15.1894C89.0528 11.9694 87.6028 10.1194 85.0828 10.1394C83.7824 10.0775 82.5827 10.8373 82.0828 12.0394H82.0228V10.2794H78.8328V23.2794H82.0428V18.4194H82.1028C82.6202 19.598 83.818 20.3286 85.1028 20.2494ZM85.7226 15.1795C85.7226 13.6195 84.9926 12.6095 83.8626 12.6095C82.7326 12.6095 82.0226 13.6095 82.0126 15.1795C82.0026 16.7495 82.7326 17.7395 83.8626 17.7395C84.9926 17.7395 85.7826 16.8095 85.7826 15.1895L85.7226 15.1795ZM98.8527 13.3298C98.8327 11.2898 97.1627 10.0198 94.4727 10.0198L94.5327 10.0298C91.8227 10.0298 90.1427 11.2798 90.0827 13.2398C90.0827 14.7498 91.0927 15.7598 93.0227 16.1698L94.8827 16.5598C95.6527 16.7198 95.9527 16.8098 95.9527 17.3398C95.9527 17.8698 95.5127 18.1698 94.5727 18.1698C93.6327 18.1698 93.0527 17.7398 92.9627 17.0098H89.8527C89.9827 19.0198 91.7727 20.3398 94.5227 20.3398C97.2727 20.3398 99.1227 18.9798 99.1227 16.9798C99.1227 15.4898 98.3227 14.6898 96.3227 14.2698L94.2627 13.8498C93.5227 13.6998 93.1527 13.5398 93.1527 13.0298C93.1527 12.5198 93.5727 12.1798 94.4527 12.1798C95.3327 12.1798 95.9227 12.6198 95.9227 13.3298H98.8527ZM109.873 20.0998H106.763V18.2498H106.703C106.344 19.5209 105.151 20.3729 103.833 20.2998C102.855 20.3317 101.91 19.9446 101.236 19.236C100.562 18.5274 100.222 17.5647 100.303 16.5898V10.2598H103.513V15.8998C103.513 17.0598 104.123 17.6898 105.123 17.6898C105.597 17.6863 106.047 17.4772 106.356 17.1166C106.665 16.7561 106.802 16.2794 106.733 15.8098V10.2598H109.933L109.873 20.0998ZM114.543 10.2494H111.423L111.443 20.1094H114.653V14.2894C114.601 13.8801 114.728 13.4683 115.002 13.1598C115.276 12.8513 115.67 12.6761 116.083 12.6794C116.963 12.6794 117.453 13.2094 117.453 14.2094V20.1094H120.513V14.2694C120.457 13.8647 120.581 13.456 120.852 13.1504C121.123 12.8447 121.514 12.6727 121.923 12.6794C122.833 12.6794 123.303 13.2394 123.303 14.2394V20.1094H126.533V13.4194C126.599 12.5334 126.284 11.6612 125.667 11.0216C125.051 10.382 124.19 10.0356 123.303 10.0694C121.945 10.0058 120.714 10.8635 120.303 12.1594H120.163C119.925 10.8603 118.738 9.95504 117.423 10.0694C116.122 10.0429 114.967 10.8977 114.613 12.1494H114.543V10.2494Z" fill="#0D0D0D"/>
</svg>
