<svg width="120" height="28" viewBox="0 0 120 28" fill="none" xmlns="http://www.w3.org/2000/svg">
<path fill-rule="evenodd" clip-rule="evenodd" d="M24.7556 5.41088C25.5731 6.38282 26.2467 7.46725 26.7556 8.63089C27.4969 10.3275 27.8782 12.1594 27.8756 14.0109C27.8701 21.4843 21.819 27.5444 14.3456 27.5609C12.6067 27.5599 10.8846 27.2203 9.2756 26.5609C8.12795 26.1049 7.05061 25.4888 6.0756 24.7309C1.92859 21.5704 -0.0333739 16.3083 1.03232 11.2043C2.09801 6.10036 6.0017 2.06293 11.0669 0.825964C16.1321 -0.410998 21.4573 1.37265 24.7556 5.41088ZM18.8556 4.20042C17.4398 3.54156 15.8971 3.20026 14.3356 3.20042L14.3456 3.18042C10.6426 3.17766 7.19638 5.0722 5.21452 8.20017C3.23266 11.3281 2.9915 15.2534 4.57555 18.6004C5.02724 18.1259 5.30559 17.5128 5.36555 16.8604C5.72926 14.3478 7.70296 12.3741 10.2156 12.0104C11.6332 11.8819 12.7653 10.7748 12.9256 9.36042C13.2893 6.84784 15.263 4.87413 17.7756 4.51042C18.1473 4.45378 18.5103 4.34959 18.8556 4.20042ZM6.0656 21.0109C6.10561 20.9742 6.14561 20.9387 6.18561 20.9031L6.18567 20.903C6.26565 20.832 6.34563 20.7609 6.4256 20.6809C7.31526 19.8183 7.88632 18.6797 8.0456 17.4509C8.11018 16.7601 8.4186 16.1149 8.9156 15.6309C9.39385 15.1331 10.0376 14.8272 10.7256 14.7709C13.2382 14.4072 15.2119 12.4335 15.5756 9.92089C15.6189 9.1984 15.9289 8.51772 16.4456 8.01088C16.9357 7.52273 17.5855 7.22799 18.2756 7.18088C19.3995 7.02625 20.4477 6.5266 21.2756 5.75088C22.2182 6.53295 23.0169 7.47378 23.6356 8.53088C23.5976 8.58223 23.554 8.62919 23.5056 8.67089C23.0283 9.17308 22.3854 9.48565 21.6956 9.55088C19.1799 9.90832 17.203 11.8852 16.8456 14.4009C16.7003 15.8202 15.5755 16.9409 14.1556 17.0809C11.636 17.4418 9.65201 19.4136 9.2756 21.9309C9.22178 22.4196 9.05395 22.8889 8.7856 23.3009C7.7596 22.6917 6.84069 21.9181 6.0656 21.0109ZM11.3356 24.4509C12.311 24.7306 13.3209 24.872 14.3356 24.8709V24.8209C17.6847 24.8079 20.839 23.2447 22.8777 20.5876C24.9165 17.9306 25.6099 14.4792 24.7556 11.2409C23.9964 11.7777 23.1176 12.121 22.1956 12.2409C20.7796 12.3854 19.6601 13.5049 19.5156 14.9209C19.1508 17.4366 17.1721 19.4112 14.6556 19.7709C13.2396 19.9154 12.1201 21.0349 11.9756 22.4509C11.8862 23.151 11.6693 23.8289 11.3356 24.4509Z" fill="#0D0D0D"/>
<path fill-rule="evenodd" clip-rule="evenodd" d="M71.3552 5.9308C70.7887 6.18186 70.4295 6.74984 70.4456 7.36929V7.38929C70.4419 7.79621 70.6081 8.18622 70.9043 8.4653C71.2004 8.74437 71.5996 8.88718 72.0056 8.85929C72.6251 8.84693 73.1761 8.4621 73.4009 7.88466C73.6257 7.30721 73.48 6.65118 73.0319 6.22319C72.5838 5.79519 71.9217 5.67974 71.3552 5.9308ZM37.8756 6.6189H34.8756V18.7489H37.8756V6.6189ZM43.7456 9.37964C40.9056 9.37964 39.0656 11.1696 39.0656 14.1696C39.0656 17.2196 40.8656 18.9696 43.7456 18.9696C46.6256 18.9696 48.4256 17.1696 48.4256 14.1696C48.4256 11.1696 46.5856 9.37964 43.7456 9.37964ZM45.4156 14.1696C45.4156 12.5196 44.7656 11.5496 43.7456 11.5496C42.7256 11.5496 42.0856 12.5496 42.0856 14.1696C42.0856 15.7896 42.7156 16.7696 43.7456 16.7696C44.7756 16.7696 45.4156 15.8496 45.4156 14.1796V14.1696ZM52.4356 19.339H49.5556V19.349C49.7256 21.009 51.3756 22.199 54.0256 22.199C56.8756 22.199 58.8056 20.839 58.8056 18.649V9.549H55.8056V11.219C55.3431 10.1138 54.2428 9.41207 53.0456 9.459C50.7456 9.459 49.3656 11.269 49.3656 14.139C49.3656 17.009 50.8156 18.679 53.0056 18.679C54.1653 18.742 55.2466 18.0925 55.7356 17.039H55.7956V18.719C55.7956 19.619 55.1956 20.239 54.0556 20.239C53.376 20.3304 52.7171 19.9643 52.4356 19.339ZM55.8056 14.1593C55.8056 12.6993 55.1356 11.7793 54.0756 11.7793C53.0156 11.7793 52.3656 12.6893 52.3656 14.1593C52.3656 15.6293 53.0056 16.4593 54.0756 16.4593C55.1456 16.4593 55.8056 15.6493 55.8056 14.1693V14.1593ZM64.6157 9.3689C61.7757 9.3689 59.9357 11.1589 59.9357 14.1589V14.1689C59.9357 17.2189 61.7257 18.9589 64.6157 18.9589C67.5057 18.9589 69.3057 17.1589 69.3057 14.1589C69.3057 11.1589 67.4557 9.3689 64.6157 9.3689ZM66.2855 14.1588C66.2855 12.5088 65.6355 11.5388 64.6155 11.5388C63.5955 11.5388 63.0055 12.5488 63.0055 14.1788C63.0055 15.8088 63.6355 16.7788 64.6555 16.7788C65.6755 16.7788 66.2855 15.8488 66.2855 14.1788V14.1588ZM70.4456 9.56929H73.4456V18.7493H70.4456V9.56929ZM80.7256 18.8696C83.0056 18.8696 84.3356 17.1596 84.3356 14.1596L84.3756 14.1796C84.3756 11.1796 83.0056 9.45962 80.7056 9.41962C79.4988 9.36575 78.3874 10.0733 77.9256 11.1896H77.8656V9.54962H74.8656V21.6896H77.8656V17.1696H77.9256C78.4099 18.2676 79.528 18.9465 80.7256 18.8696ZM81.3356 14.1593C81.3356 12.6993 80.6656 11.7693 79.6156 11.7693C78.5656 11.7693 77.8956 12.7093 77.8856 14.1593C77.8756 15.6093 78.5656 16.5393 79.6156 16.5393C80.6656 16.5393 81.3356 15.6293 81.3356 14.1793V14.1593ZM93.5556 12.4293C93.4856 10.5393 91.9756 9.35929 89.4856 9.35929V9.37929C87.0056 9.37929 85.3956 10.5493 85.3756 12.3493C85.3756 13.7493 86.3156 14.6993 88.1056 15.0693L89.8356 15.4393C90.5556 15.5893 90.8356 15.6893 90.8356 16.1693C90.8356 16.6493 90.4356 16.9393 89.5556 16.9393C88.6756 16.9393 88.1356 16.5393 88.0456 15.8593H85.1556C85.2856 17.7293 86.9556 18.9493 89.5056 18.9493C92.0556 18.9493 93.7856 17.7293 93.7856 15.8293C93.7856 14.4393 93.0056 13.6993 91.1756 13.3093L89.2556 12.9193C88.5856 12.7793 88.2556 12.6293 88.2556 12.1593C88.2556 11.6893 88.6256 11.3693 89.4556 11.3693C90.2856 11.3693 90.8256 11.7793 90.8256 12.4293H93.5556ZM103.796 18.7296H100.906V17.0196H100.846C100.518 18.2025 99.4111 18.9975 98.1856 18.9296C97.2634 18.982 96.3638 18.6321 95.7193 17.9704C95.0748 17.3086 94.7489 16.4001 94.8256 15.4796V9.54956H97.8256V14.7896C97.8256 15.8796 98.3856 16.4596 99.3156 16.4596C99.7568 16.4605 100.177 16.2709 100.468 15.9394C100.759 15.608 100.893 15.167 100.836 14.7296V9.54956H103.836L103.796 18.7296ZM108.146 9.54955H105.246L105.196 18.7496H108.196V13.3396C108.15 12.9591 108.269 12.5773 108.523 12.2906C108.778 12.0038 109.142 11.8397 109.526 11.8396C110.346 11.8396 110.796 12.3396 110.796 13.2596V18.7496H113.646V13.3196C113.596 12.9437 113.712 12.5651 113.964 12.2812C114.215 11.9974 114.577 11.8363 114.956 11.8396C115.796 11.8396 116.246 12.2996 116.246 13.2996V18.7496H119.246V12.4996C119.306 11.6762 119.013 10.8661 118.441 10.271C117.869 9.67588 117.071 9.35183 116.246 9.37955C114.959 9.32428 113.799 10.1473 113.426 11.3796H113.366C113.166 10.1504 112.057 9.28015 110.816 9.37955C109.606 9.35718 108.533 10.1544 108.206 11.3196H108.146V9.54955Z" fill="#0D0D0D"/>
</svg>
