<svg width="128" height="30" viewBox="0 0 128 30" fill="none" xmlns="http://www.w3.org/2000/svg">
<path fill-rule="evenodd" clip-rule="evenodd" d="M2.36205 1.68476V21.9948C2.36205 22.2441 2.26302 22.4832 2.08673 22.6594C1.91045 22.8357 1.67136 22.9348 1.42205 22.9348H1.20205C0.682907 22.9348 0.262054 22.5139 0.262054 21.9948V1.68476C0.267536 1.16952 0.686787 0.754732 1.20205 0.754761H1.42205C1.93732 0.754732 2.35657 1.16952 2.36205 1.68476ZM13.8925 14.5589C14.091 14.3699 14.3584 14.2706 14.6321 14.2843L14.5821 14.3043C14.8731 14.2746 15.1625 14.3738 15.3741 14.5758C15.5857 14.7778 15.6983 15.0623 15.6821 15.3543V20.8543C15.6821 21.4342 15.212 21.9043 14.6321 21.9043C14.0522 21.9043 13.5821 21.4342 13.5821 20.8543V15.2843C13.5818 15.0102 13.694 14.748 13.8925 14.5589ZM16.8919 17.4552C16.8919 16.903 17.3397 16.4552 17.8919 16.4552C18.1813 16.4287 18.4679 16.5293 18.6772 16.7309C18.8864 16.9324 18.9977 17.2151 18.9819 17.5052V18.7152C18.9819 19.2924 18.5141 19.7602 17.9369 19.7602C17.3598 19.7602 16.8919 19.2924 16.8919 18.7152V17.4552ZM8.99205 25.7748V18.5448C8.67935 18.7825 8.29469 18.906 7.90205 18.8948C7.54189 18.8858 7.19302 18.7672 6.90205 18.5548V25.7748C6.90205 26.3519 7.36992 26.8198 7.94705 26.8198C8.52419 26.8198 8.99205 26.3519 8.99205 25.7748ZM4.63217 21.2852C4.27234 21.2744 3.92401 21.156 3.63217 20.9452V28.1952C3.63217 28.7751 4.10227 29.2452 4.68217 29.2452C5.26207 29.2452 5.73217 28.7751 5.73217 28.1952V20.9952C5.40562 21.2063 5.02034 21.3078 4.63217 21.2852ZM11.3121 16.4248C10.9354 16.4222 10.5687 16.3035 10.2621 16.0848V23.3548C10.2621 23.9347 10.7322 24.4048 11.3121 24.4048C11.892 24.4048 12.3621 23.9347 12.3621 23.3548V16.0948C12.0448 16.3311 11.6575 16.4543 11.2621 16.4448L11.3121 16.4248ZM4.74205 20.5148H4.52205C4.00291 20.5148 3.58205 20.0939 3.58205 19.5748V4.10476C3.58754 3.58952 4.00679 3.17473 4.52205 3.17476H4.74205C5.25732 3.17473 5.67657 3.58952 5.68205 4.10476V19.5948C5.68205 20.1139 5.2612 20.5348 4.74205 20.5348V20.5148ZM7.82199 18.1343H8.05199C8.56562 18.1343 8.98199 17.718 8.98199 17.2043V6.50433C8.98202 5.98906 8.56723 5.56981 8.05199 5.56433H7.82199C7.5736 5.56432 7.33552 5.66367 7.16082 5.84025C6.98612 6.01683 6.88932 6.25595 6.89199 6.50433V17.2043C6.89199 17.718 7.30837 18.1343 7.82199 18.1343ZM11.3621 15.6848H11.1521C10.6368 15.6848 10.2175 15.27 10.2121 14.7548V8.99476C10.1955 8.73523 10.2871 8.48043 10.4652 8.29094C10.6433 8.10146 10.892 7.99423 11.1521 7.99476H11.3721C11.8912 7.99476 12.3121 8.41561 12.3121 8.93476V14.7348C12.3147 14.9858 12.2169 15.2275 12.0403 15.4059C11.8637 15.5844 11.6231 15.6848 11.3721 15.6848H11.3621ZM14.4621 13.5348H14.6821H14.6921C15.2073 13.5293 15.6221 13.11 15.6221 12.5948V11.1048C15.6166 10.5895 15.1973 10.1747 14.6821 10.1748H14.4621C13.9468 10.1747 13.5275 10.5895 13.5221 11.1048V12.5948C13.5221 13.1139 13.9429 13.5348 14.4621 13.5348Z" fill="#0D0D0D"/>
<path d="M25.2835 9.9696C25.6435 9.9696 25.7635 10.0996 25.7635 10.4496V18.3696H29.8335C30.1835 18.3696 30.3135 18.4996 30.3135 18.8496V19.5496C30.3135 19.8996 30.1835 20.0296 29.8335 20.0296H24.4735C24.1235 20.0296 23.9835 19.8996 23.9835 19.5496V10.4496C23.9835 10.0996 24.1235 9.9696 24.4735 9.9696H25.2835Z" fill="#0D0D0D"/>
<path fill-rule="evenodd" clip-rule="evenodd" d="M39.3136 9.75964C36.7736 9.75964 35.3136 11.1496 35.3136 13.4596V16.5396C35.3136 18.8496 36.7836 20.2396 39.3136 20.2396C41.8436 20.2396 43.3136 18.8496 43.3136 16.5396V13.4596C43.3136 11.1496 41.8536 9.75964 39.3136 9.75964ZM39.3636 11.4596C40.8236 11.4596 41.6336 12.1596 41.6336 13.4596V16.5596C41.6336 17.8396 40.8236 18.5596 39.3636 18.5596C37.9036 18.5596 37.1036 17.8696 37.1036 16.5596V13.4596C37.1036 12.1696 37.9036 11.4596 39.3636 11.4596Z" fill="#0D0D0D"/>
<path d="M55.8936 14.5548C56.2836 14.5548 56.3736 14.6848 56.3736 15.0348V16.9348C56.395 17.8412 56.0054 18.7087 55.3136 19.2948C54.4653 19.9703 53.3957 20.3054 52.3136 20.2348C49.7236 20.2348 48.3136 18.8448 48.3136 16.5348V13.4348C48.3136 11.1548 49.7736 9.75476 52.3136 9.75476C54.3136 9.75476 55.6136 10.5448 56.1636 12.1248C56.2259 12.2451 56.2279 12.3879 56.1689 12.5099C56.1098 12.6319 55.9967 12.719 55.8636 12.7448L55.0836 13.0148C54.7436 13.1348 54.6036 13.0648 54.4836 12.7148C54.1428 11.836 53.2491 11.3007 52.3136 11.4148C50.8436 11.4148 50.0436 12.1248 50.0436 13.4148V16.5948C50.0436 17.9048 50.8536 18.5948 52.3136 18.5948C53.7736 18.5948 54.6736 17.9248 54.6736 16.9448V16.2048H52.5036C52.1436 16.2048 52.0136 16.0648 52.0136 15.7148V15.0348C52.0136 14.6848 52.1436 14.5548 52.5036 14.5548H55.8936Z" fill="#0D0D0D"/>
<path fill-rule="evenodd" clip-rule="evenodd" d="M65.3744 9.75964C62.8344 9.75964 61.3744 11.1496 61.3744 13.4596V16.5396C61.3744 18.8496 62.8444 20.2396 65.3744 20.2396C67.9044 20.2396 69.3744 18.8496 69.3744 16.5396V13.4596C69.3744 11.1496 67.9144 9.75964 65.3744 9.75964ZM65.4244 11.4596C66.8744 11.4596 67.6844 12.1596 67.6844 13.4596V16.5596C67.6844 17.8396 66.8844 18.5596 65.4244 18.5596C63.9644 18.5596 63.1544 17.8696 63.1544 16.5596V13.4596C63.1544 12.1696 63.9744 11.4596 65.4244 11.4596Z" fill="#0D0D0D"/>
<path d="M74.3744 10.2596C74.3744 10.0396 74.4444 9.9696 74.6644 9.9696H75.1244C75.3444 9.9696 75.3944 10.0396 75.3944 10.2596V19.7396C75.3944 19.9596 75.3944 20.0296 75.1244 20.0296H74.6644C74.4444 20.0296 74.3744 19.9596 74.3744 19.7396V10.2596Z" fill="#0D0D0D"/>
<path fill-rule="evenodd" clip-rule="evenodd" d="M87.5544 13.1096C87.5544 11.3754 86.1486 9.9696 84.4144 9.9696H80.6844C80.4744 9.9696 80.3944 10.0396 80.3944 10.2596V19.7396C80.3944 19.9596 80.4744 20.0296 80.6844 20.0296H81.1544C81.3644 20.0296 81.4144 19.9596 81.4144 19.7396V16.2496H84.4144C86.1486 16.2496 87.5544 14.8438 87.5544 13.1096ZM86.2122 14.1693C85.8228 14.8438 85.1031 15.2593 84.3243 15.2593H81.3243V10.8993H84.3243C85.1031 10.8993 85.8228 11.3148 86.2122 11.9893C86.6017 12.6638 86.6017 13.4948 86.2122 14.1693Z" fill="#0D0D0D"/>
<path d="M96.3923 9.75421C97.9778 9.57924 99.4901 10.4655 100.112 11.9342C100.192 12.0942 100.112 12.2242 99.9523 12.3042L99.5123 12.5042C99.3323 12.5742 99.2623 12.5642 99.1523 12.3742C98.6874 11.285 97.5712 10.6217 96.3923 10.7342C94.7023 10.7342 93.7823 11.4042 93.7823 12.6042C93.762 13.3625 94.304 14.0197 95.0523 14.1442C95.5902 14.3196 96.1478 14.4271 96.7123 14.4642C97.3957 14.5007 98.0697 14.6388 98.7123 14.8742C99.7277 15.1955 100.379 16.1846 100.272 17.2442C100.272 19.1142 98.9123 20.2442 96.4123 20.2442C94.7226 20.4375 93.1272 19.4253 92.5823 17.8142C92.5466 17.742 92.5449 17.6577 92.5778 17.5842C92.6107 17.5107 92.6747 17.4557 92.7523 17.4342L93.1923 17.2742C93.2624 17.2456 93.3413 17.2477 93.4097 17.28C93.4782 17.3123 93.5299 17.3719 93.5523 17.4442C94.0114 18.6035 95.1685 19.3318 96.4123 19.2442C98.3023 19.2442 99.2323 18.5842 99.2323 17.2442C99.2687 16.5168 98.7738 15.8697 98.0623 15.7142C97.5449 15.5599 97.0113 15.4659 96.4723 15.4342L95.3923 15.2942C95.0543 15.2225 94.7205 15.1323 94.3923 15.0242C94.0682 14.9263 93.766 14.7667 93.5023 14.5542C92.9653 14.0679 92.6722 13.3681 92.7023 12.6442C92.7723 10.8942 94.0823 9.75421 96.3923 9.75421Z" fill="#0D0D0D"/>
<path d="M106.314 16.5051C106.402 17.9731 107.618 19.1185 109.089 19.1185C110.559 19.1185 111.776 17.9731 111.864 16.5051V10.1551C111.864 9.93511 111.934 9.86511 112.154 9.86511H112.614C112.834 9.86511 112.904 9.93511 112.904 10.1551V16.4951C112.904 18.7651 111.564 20.1351 109.094 20.1351C106.624 20.1351 105.284 18.7651 105.284 16.4951V10.1551C105.284 9.93511 105.354 9.86511 105.564 9.86511H106.034C106.244 9.86511 106.314 9.93511 106.314 10.1551V16.5051Z" fill="#0D0D0D"/>
<path d="M126.734 9.97036C126.954 9.97036 127.024 10.0404 127.024 10.2604V19.7404C127.024 19.9604 126.954 20.0304 126.734 20.0304H126.314C126.104 20.0304 126.034 19.9604 126.034 19.7404V13.9704C126.033 13.1308 126.09 12.2922 126.204 11.4604H126.144C125.831 12.2211 125.467 12.9595 125.054 13.6704L122.904 17.4604C122.85 17.595 122.719 17.6824 122.574 17.6804H122.294C122.147 17.6811 122.013 17.5947 121.954 17.4604L119.774 13.6304C119.386 12.9296 119.052 12.2009 118.774 11.4504H118.714C118.816 12.2899 118.87 13.1346 118.874 13.9804V19.7404C118.874 19.9604 118.804 20.0304 118.584 20.0304H118.194C117.974 20.0304 117.904 19.9604 117.904 19.7404V10.2604C117.904 10.0404 117.974 9.97036 118.194 9.97036H118.554C118.722 9.95465 118.882 10.0468 118.954 10.2004L122.454 16.4204L125.934 10.2604C126.044 10.0504 126.104 10.0204 126.324 10.0204L126.734 9.97036Z" fill="#0D0D0D"/>
</svg>
